<svg width="671" height="124" viewBox="0 0 671 124" fill="none" xmlns="http://www.w3.org/2000/svg">
<path d="M70.3945 2.83301L70.3095 2.86562C66.5238 4.3178 66.184 7.22219 66.4873 8.49288L66.4873 111.236C66.4873 115.955 67.8266 118.425 70.3091 120.517C75.1043 124.556 89.3836 123.335 93.3179 118.505C100.379 109.837 100.705 111.236 107.621 107.968C114.538 104.701 123.82 94.38 123.82 85.6408C123.82 81.4635 122.728 78.7429 125.458 74.0232C128.188 69.3036 129.644 53.1479 122.728 46.9761C116.818 41.7025 116.176 36.0846 116.358 33.7248C115.933 29.3682 113.364 20.6824 106.558 16.4533C97.2491 10.6691 101.797 13.7571 93.0606 5.58848C84.3762 -2.53148 75.1523 1.00756 70.3945 2.83301Z" fill="#04669D"/>
<rect x="110.946" y="83.1273" width="44.4558" height="3.92281" transform="rotate(179.803 110.946 83.1273)" fill="white"/>
<rect x="110.7" y="51.3585" width="44.2007" height="3.52415" transform="rotate(179.803 110.7 51.3585)" fill="white"/>
<rect x="94.634" y="43.0782" width="9.95125" height="2.48781" transform="rotate(179.803 94.634 43.0782)" fill="white"/>
<rect x="89.2893" y="18.1874" width="9.95125" height="2.48781" transform="rotate(179.803 89.2893 18.1874)" fill="white"/>
<rect width="21.5792" height="2.48781" transform="matrix(-0.999994 -0.00344487 -0.00344487 0.999994 104.076 88.0128)" fill="white"/>
<rect x="86.8357" y="41.8737" width="9.95125" height="2.48781" transform="rotate(120.133 86.8357 41.8737)" fill="white"/>
<rect x="81.4812" y="16.9828" width="9.95125" height="2.48781" transform="rotate(120.133 81.4812 16.9828)" fill="white"/>
<rect width="9.42142" height="2.48781" transform="matrix(-0.502014 -0.86486 -0.86486 0.502014 84.6453 89.1774)" fill="white"/>
<circle cx="112.788" cy="81.2434" r="2.2691" transform="rotate(179.803 112.788 81.2434)" stroke="white" stroke-width="2"/>
<circle cx="113.008" cy="49.6734" r="1.93688" transform="rotate(179.803 113.008 49.6734)" stroke="white" stroke-width="2"/>
<circle cx="95.9412" cy="41.8515" r="1.57318" transform="rotate(179.803 95.9412 41.8515)" stroke="white"/>
<circle cx="90.6121" cy="16.9606" r="1.57318" transform="rotate(179.803 90.6121 16.9606)" stroke="white"/>
<circle r="1.57318" transform="matrix(-0.999994 -0.00344487 -0.00344487 0.999994 105.477 89.2196)" stroke="white"/>
<rect x="116.082" y="68.3734" width="49.5915" height="3.92281" transform="rotate(179.803 116.082 68.3734)" fill="white"/>
<rect x="93.0906" y="105.196" width="26.5951" height="3.92292" transform="rotate(179.803 93.0906 105.196)" fill="white"/>
<rect width="27.7135" height="3.92292" transform="matrix(-0.999994 -0.00344489 -0.00344489 0.999994 94.2007 23.5974)" fill="white"/>
<rect x="107.722" y="59.5228" width="21.8414" height="2.48781" transform="rotate(179.803 107.722 59.5228)" fill="white"/>
<rect x="81.8237" y="96.3558" width="7.01473" height="2.48781" transform="rotate(179.803 81.8237 96.3558)" fill="white"/>
<rect width="26.5843" height="2.48781" transform="matrix(-0.999994 -0.00344489 -0.00344489 0.999994 106.641 34.5624)" fill="white"/>
<rect width="6.12342" height="2.48781" transform="matrix(-0.999994 -0.00344489 -0.00344489 0.999994 80.8259 9.4054)" fill="white"/>
<rect width="15.2322" height="2.48781" transform="matrix(-0.999994 -0.00344487 -0.00344487 0.999994 96.9578 73.2546)" fill="white"/>
<rect width="15.2322" height="2.48781" transform="matrix(-0.999994 -0.00344487 -0.00344487 0.999994 85.8845 110.016)" fill="white"/>
<rect x="88.0266" y="58.3591" width="9.42142" height="2.48781" transform="rotate(120.133 88.0266 58.3591)" fill="white"/>
<rect x="76.9495" y="95.1411" width="9.42142" height="2.48781" transform="rotate(120.133 76.9495 95.1411)" fill="white"/>
<rect width="9.42142" height="2.48781" transform="matrix(-0.502014 -0.86486 -0.86486 0.502014 83.8718 74.441)" fill="white"/>
<rect width="8.2826" height="2.48781" transform="matrix(-0.502014 -0.86486 -0.86486 0.502014 72.7925 111.202)" fill="white"/>
<rect x="82.2092" y="35.7197" width="17.5436" height="2.48781" transform="rotate(120.133 82.2092 35.7197)" fill="white"/>
<rect x="76.8442" y="10.6332" width="16.324" height="2.48781" transform="rotate(120.133 76.8442 10.6332)" fill="white"/>
<circle cx="118.499" cy="66.293" r="2.2691" transform="rotate(179.803 118.499 66.293)" stroke="white" stroke-width="2"/>
<circle cx="95.6186" cy="103.289" r="2.2691" transform="rotate(179.803 95.6186 103.289)" stroke="white" stroke-width="2"/>
<circle r="2.2691" transform="matrix(-0.999994 -0.00344489 -0.00344489 0.999994 95.9723 25.5891)" stroke="white" stroke-width="2"/>
<circle cx="108.959" cy="58.3164" r="1.57318" transform="rotate(179.803 108.959 58.3164)" stroke="white"/>
<circle cx="83.3567" cy="95.1239" r="1.57318" transform="rotate(179.803 83.3567 95.1239)" stroke="white"/>
<circle r="1.57318" transform="matrix(-0.999994 -0.00344489 -0.00344489 0.999994 108.085 35.7606)" stroke="white"/>
<circle r="1.57318" transform="matrix(-0.999994 -0.00344489 -0.00344489 0.999994 82.1907 10.6388)" stroke="white"/>
<circle r="1.57318" transform="matrix(-0.999994 -0.00344487 -0.00344487 0.999994 98.5676 74.4723)" stroke="white"/>
<circle r="1.57318" transform="matrix(-0.999994 -0.00344487 -0.00344487 0.999994 87.512 111.234)" stroke="white"/>
<path d="M57.626 3.10351L57.7107 3.13613C61.4828 4.58831 61.8214 7.4927 61.5191 8.76339L61.5191 111.506C61.5191 116.226 60.1846 118.696 57.7111 120.787C52.9332 124.827 38.7052 123.605 34.7851 118.775C27.7497 110.108 27.4246 111.506 20.5332 108.239C13.6417 104.971 4.39266 94.6505 4.39266 85.9113C4.39266 81.734 5.48079 79.0134 2.76048 74.2937C0.0401733 69.5741 -1.41066 53.4184 5.48079 47.2466C11.3693 41.973 12.0095 36.3551 11.8282 33.9953C12.2513 29.6387 14.8113 20.9529 21.5929 16.7238C30.868 10.9397 26.3365 14.0276 35.0415 5.85899C43.6946 -2.26097 52.8854 1.27806 57.626 3.10351Z" fill="#04669D"/>
<path d="M58.0421 21.1133C58.0421 25.6492 54.6615 23.6001 52.9712 22.0085C47.3037 17.0349 44.122 17.3333 44.122 22.0085C44.122 26.6838 50.4482 28.6551 53.3979 29.9482C55.7176 30.9652 58.1416 31.1347 58.1416 34.94V43.3952C58.1416 49.861 53.5678 48.8662 49.2923 48.4683C45.0169 48.0704 43.3266 48.3689 34.3779 55.6304C25.4293 62.8919 24.1367 54.8346 21.5515 51.9499C18.9663 49.0652 15.2088 51.3055 16.2817 54.8346C17.1208 57.5945 15.7822 60.2033 13.1994 62.3945C9.67414 65.3855 12.9344 69.6868 15.3869 68.164C18.2703 66.3735 22.2499 62.4831 27.0201 66.274C31.5755 69.8942 34.3779 70.092 37.7585 63.5882C42.3394 54.7752 49.8889 54.7351 54.065 55.6304C57.4058 56.3466 58.1747 59.7751 58.1416 61.3998V73.635C58.1416 76.5197 56.8768 77.0924 54.6615 77.3155C52.3669 77.5465 47.9804 77.8661 48.3975 71.9439C48.812 66.0578 47.3098 65.425 44.6898 65.6244C41.9018 65.8366 43.4894 70.9885 40.9197 73.5197C33.8527 80.4809 29.678 75.629 25.1316 72.2277C19.9288 68.3352 17.9366 74.0866 20.6566 76.6192C21.9292 77.804 23.7389 81.3939 21.5515 84.8754C19.364 88.357 23.2274 91.8764 26.4235 88.5559C31.5939 83.1844 36.7787 84.1441 40.3437 82.3886C43.8704 80.652 45.0327 80.8821 46.1106 81.3939C47.547 82.0758 49.8999 84.1587 54.065 84.4775C58.3395 84.8048 58.1416 87.9591 58.1416 88.5559C58.1416 89.1528 58.4399 99.7964 58.1416 106.859C57.8433 113.922 51.8225 116.407 43.5698 114.716C35.3172 113.025 34.7202 108.465 33.3162 105.765C31.9118 103.063 32.2186 95.971 37.7585 97.8069C42.335 99.3236 41.7012 102.963 42.9289 105.765C44.961 110.402 50.0724 107.639 48.6958 103.278C47.5026 99.4979 48.0233 98.5027 49.8889 97.8069C51.4893 97.2101 53.7662 96.7639 54.6615 94.5243C56.2963 90.4354 51.4798 89.4512 49.2923 90.6449C47.1049 91.8385 45.2953 93.5235 40.3437 91.5796C30.7403 87.8097 27.8156 95.4196 27.0201 97.8069C26.2247 100.194 24.0336 101.823 20.6566 99.7964C13.177 95.3066 12.5034 89.0533 11.8074 83.8807C11.1114 78.7081 12.2372 77.0883 10.0177 72.7397C6.45497 65.7595 7.33307 58.0177 11.1114 51.9499C14.8897 45.882 18.8669 47.2458 18.8669 39.9137C18.8669 29.1687 22.0402 26.7467 24.2361 24.4953C26.4334 22.2426 28.0576 23.4632 28.6767 24.9428C29.3077 26.4507 29.535 28.2089 30.5996 30.5632C32.8486 35.5368 29.2474 36.5316 27.0201 41.5052C24.7928 46.4789 30.5996 49.6277 32.3893 46.4789C37.199 38.0166 41.5368 41.2068 46.1106 42.1021C50.6843 42.9973 52.532 36.4473 47.9003 35.5368C38.7636 33.7409 34.179 24.4953 35.0739 19.3228C35.9688 14.1502 38.2556 11.4644 44.9174 8.4802C51.5792 5.49601 56.0535 10.6686 57.1473 12.7575C58.241 14.8465 58.0421 15.4433 58.0421 21.1133Z" fill="white"/>
<path d="M311.827 43.2459C316.093 43.2459 319.86 44.1126 323.127 45.8459C326.46 47.5126 329.06 50.1126 330.927 53.6459C332.86 57.1126 333.827 61.5793 333.827 67.0459V97.8459H318.227V69.4459C318.227 65.1126 317.327 61.9126 315.527 59.8459C313.727 57.7793 311.193 56.7459 307.927 56.7459C305.66 56.7459 303.627 57.2793 301.827 58.3459C300.027 59.3459 298.627 60.8793 297.627 62.9459C296.627 65.0126 296.127 67.6459 296.127 70.8459V97.8459H280.527V69.4459C280.527 65.1126 279.627 61.9126 277.827 59.8459C276.093 57.7793 273.593 56.7459 270.327 56.7459C268.06 56.7459 266.027 57.2793 264.227 58.3459C262.427 59.3459 261.027 60.8793 260.027 62.9459C259.027 65.0126 258.527 67.6459 258.527 70.8459V97.8459H242.927V44.0459H257.827V58.7459L255.027 54.4459C256.893 50.7793 259.527 48.0126 262.927 46.1459C266.393 44.2126 270.327 43.2459 274.727 43.2459C279.66 43.2459 283.96 44.5126 287.627 47.0459C291.36 49.5126 293.827 53.3126 295.027 58.4459L289.527 56.9459C291.327 52.7459 294.193 49.4126 298.127 46.9459C302.127 44.4793 306.693 43.2459 311.827 43.2459ZM380.509 98.6459C376.043 98.6459 372.043 97.7793 368.509 96.0459C365.043 94.3126 362.343 91.6793 360.409 88.1459C358.476 84.5459 357.509 79.9793 357.509 74.4459V44.0459H373.109V72.1459C373.109 76.6126 374.043 79.9126 375.909 82.0459C377.843 84.1126 380.543 85.1459 384.009 85.1459C386.409 85.1459 388.543 84.6459 390.409 83.6459C392.276 82.5793 393.743 80.9793 394.809 78.8459C395.876 76.6459 396.409 73.9126 396.409 70.6459V44.0459H412.009V97.8459H397.209V83.0459L399.909 87.3459C398.109 91.0793 395.443 93.9126 391.909 95.8459C388.443 97.7126 384.643 98.6459 380.509 98.6459Z" fill="#04669D"/>
<path d="M460.562 99.0459C454.962 99.0459 449.595 98.3126 444.462 96.8459C439.328 95.3126 435.195 93.3459 432.062 90.9459L437.562 78.7459C440.562 80.8793 444.095 82.6459 448.162 84.0459C452.295 85.3793 456.462 86.0459 460.662 86.0459C463.862 86.0459 466.428 85.7459 468.362 85.1459C470.362 84.4793 471.828 83.5793 472.762 82.4459C473.695 81.3126 474.162 80.0126 474.162 78.5459C474.162 76.6793 473.428 75.2126 471.962 74.1459C470.495 73.0126 468.562 72.1126 466.162 71.4459C463.762 70.7126 461.095 70.0459 458.162 69.4459C455.295 68.7793 452.395 67.9793 449.462 67.0459C446.595 66.1126 443.962 64.9126 441.562 63.4459C439.162 61.9793 437.195 60.0459 435.662 57.6459C434.195 55.2459 433.462 52.1793 433.462 48.4459C433.462 44.4459 434.528 40.8126 436.662 37.5459C438.862 34.2126 442.128 31.5793 446.462 29.6459C450.862 27.6459 456.362 26.6459 462.962 26.6459C467.362 26.6459 471.695 27.1793 475.962 28.2459C480.228 29.2459 483.995 30.7793 487.262 32.8459L482.262 45.1459C478.995 43.2793 475.728 41.9126 472.462 41.0459C469.195 40.1126 465.995 39.6459 462.862 39.6459C459.728 39.6459 457.162 40.0126 455.162 40.7459C453.162 41.4793 451.728 42.4459 450.862 43.6459C449.995 44.7793 449.562 46.1126 449.562 47.6459C449.562 49.4459 450.295 50.9126 451.762 52.0459C453.228 53.1126 455.162 53.9793 457.562 54.6459C459.962 55.3126 462.595 55.9793 465.462 56.6459C468.395 57.3126 471.295 58.0793 474.162 58.9459C477.095 59.8126 479.762 60.9793 482.162 62.4459C484.562 63.9126 486.495 65.8459 487.962 68.2459C489.495 70.6459 490.262 73.6793 490.262 77.3459C490.262 81.2793 489.162 84.8793 486.962 88.1459C484.762 91.4126 481.462 94.0459 477.062 96.0459C472.728 98.0459 467.228 99.0459 460.562 99.0459ZM535.831 98.6459C530.098 98.6459 524.998 97.4459 520.531 95.0459C516.131 92.6459 512.631 89.3793 510.031 85.2459C507.498 81.0459 506.231 76.2793 506.231 70.9459C506.231 65.5459 507.498 60.7793 510.031 56.6459C512.631 52.4459 516.131 49.1793 520.531 46.8459C524.998 44.4459 530.098 43.2459 535.831 43.2459C541.498 43.2459 546.565 44.4459 551.031 46.8459C555.498 49.1793 558.998 52.4126 561.531 56.5459C564.065 60.6793 565.331 65.4793 565.331 70.9459C565.331 76.2793 564.065 81.0459 561.531 85.2459C558.998 89.3793 555.498 92.6459 551.031 95.0459C546.565 97.4459 541.498 98.6459 535.831 98.6459ZM535.831 85.8459C538.431 85.8459 540.765 85.2459 542.831 84.0459C544.898 82.8459 546.531 81.1459 547.731 78.9459C548.931 76.6793 549.531 74.0126 549.531 70.9459C549.531 67.8126 548.931 65.1459 547.731 62.9459C546.531 60.7459 544.898 59.0459 542.831 57.8459C540.765 56.6459 538.431 56.0459 535.831 56.0459C533.231 56.0459 530.898 56.6459 528.831 57.8459C526.765 59.0459 525.098 60.7459 523.831 62.9459C522.631 65.1459 522.031 67.8126 522.031 70.9459C522.031 74.0126 522.631 76.6793 523.831 78.9459C525.098 81.1459 526.765 82.8459 528.831 84.0459C530.898 85.2459 533.231 85.8459 535.831 85.8459ZM587.659 97.8459V42.8459C587.659 36.7793 589.459 31.9459 593.059 28.3459C596.659 24.6793 601.792 22.8459 608.459 22.8459C610.725 22.8459 612.892 23.0793 614.959 23.5459C617.092 24.0126 618.892 24.7459 620.359 25.7459L616.259 37.0459C615.392 36.4459 614.425 35.9793 613.359 35.6459C612.292 35.3126 611.159 35.1459 609.959 35.1459C607.692 35.1459 605.925 35.8126 604.659 37.1459C603.459 38.4126 602.859 40.3459 602.859 42.9459V47.9459L603.259 54.6459V97.8459H587.659ZM579.359 57.2459V45.2459H616.659V57.2459H579.359ZM656.43 98.6459C650.097 98.6459 645.164 97.0459 641.63 93.8459C638.097 90.5793 636.33 85.7459 636.33 79.3459V32.1459H651.93V79.1459C651.93 81.4126 652.53 83.1793 653.73 84.4459C654.93 85.6459 656.564 86.2459 658.63 86.2459C661.097 86.2459 663.197 85.5793 664.93 84.2459L669.13 95.2459C667.53 96.3793 665.597 97.2459 663.33 97.8459C661.13 98.3793 658.83 98.6459 656.43 98.6459ZM628.03 57.2459V45.2459H665.33V57.2459H628.03Z" fill="#36AFF3"/>
<path d="M162.227 75.8459C159.764 81.852 160.227 92.8459 152.727 97.4277C160.279 99.3887 172.164 95.4313 174.727 85.3459C177.289 75.2606 175.383 71.6706 185.727 62.8459C174.398 62.846 167.062 64.0526 162.227 75.8459Z" fill="#04669D"/>
<path d="M194.727 27.8459H179.227L209.227 97.3459H226.227L194.727 27.8459Z" fill="#04669D"/>
</svg>
